<svg xmlns="http://www.w3.org/2000/svg" viewBox="0 0 43.071 37.485">
  <path fill="#e69100" d="M10.763 37.318c-.165-.206-3.945-6.72-7.85-13.531L0 18.709l.37-.668C1.748 15.554 10.53.362 10.684.2 10.85.024 12.252 0 21.713 0H32.55l3.766 6.548c5.253 9.133 6.754 11.812 6.754 12.059 0 .117-.358.888-.795 1.713-.69 1.304-6.707 11.87-8.993 15.795l-.798 1.37H21.69c-8.474 0-10.822-.036-10.928-.167zm13.73-7.939c2.277-.587 4.628-2.273 6.005-4.304 1.138-1.68 1.675-3.242 1.822-5.297.234-3.302-.788-6.022-3.14-8.352-1.227-1.216-2.012-1.74-3.773-2.517l-1.112-.49-2.472.004c-1.988.004-2.628.051-3.266.245-2.755.835-5.254 2.977-6.568 5.63-.836 1.69-1.028 2.737-.956 5.212.054 1.828.095 2.1.467 3.097 1.066 2.855 3.55 5.38 6.36 6.467.576.222 1.388.458 1.803.523.991.155 3.892.024 4.83-.218z"/>
</svg>
