<?xml version="1.0" encoding="UTF-8" standalone="no"?>
<svg
   xmlns:dc="http://purl.org/dc/elements/1.1/"
   xmlns:cc="http://creativecommons.org/ns#"
   xmlns:rdf="http://www.w3.org/1999/02/22-rdf-syntax-ns#"
   xmlns:svg="http://www.w3.org/2000/svg"
   xmlns="http://www.w3.org/2000/svg"
   xmlns:sodipodi="http://sodipodi.sourceforge.net/DTD/sodipodi-0.dtd"
   xmlns:inkscape="http://www.inkscape.org/namespaces/inkscape"
   width="2288.669921875"
   height="1209"
   version="1.1"
   id="svg85"
   sodipodi:docname="thumbnail.svg"
   inkscape:version="0.92.4 (5da689c313, 2019-01-14)">
  <metadata
     id="metadata89">
    <rdf:RDF>
      <cc:Work
         rdf:about="">
        <dc:format>image/svg+xml</dc:format>
        <dc:type
           rdf:resource="http://purl.org/dc/dcmitype/StillImage" />
        <dc:title></dc:title>
      </cc:Work>
    </rdf:RDF>
  </metadata>
  <sodipodi:namedview
     pagecolor="#ffffff"
     bordercolor="#666666"
     borderopacity="1"
     objecttolerance="10"
     gridtolerance="10"
     guidetolerance="10"
     inkscape:pageopacity="0"
     inkscape:pageshadow="2"
     inkscape:window-width="1920"
     inkscape:window-height="1017"
     id="namedview87"
     showgrid="false"
     inkscape:zoom="1.0032028"
     inkscape:cx="1183.9217"
     inkscape:cy="674.28114"
     inkscape:window-x="3832"
     inkscape:window-y="638"
     inkscape:window-maximized="1"
     inkscape:current-layer="svg_26" />
  <desc
     id="desc2">Created with Snap</desc>
  <defs
     id="defs29">
    <linearGradient
       id="linearGradientSjzq77kpt2z"
       y2="0.5"
       x2="1"
       y1="0.5"
       x1="0">
      <stop
         stop-color="#e69100"
         offset="0%"
         id="stop4" />
      <stop
         stop-color="#e69100"
         offset="100%"
         id="stop6" />
    </linearGradient>
    <linearGradient
       id="linearGradientSjzq77kpt32"
       y2="0.5"
       x2="1"
       y1="0.5"
       x1="0">
      <stop
         stop-color="#e69100"
         offset="0%"
         id="stop9" />
      <stop
         stop-color="#e69100"
         offset="100%"
         id="stop11" />
    </linearGradient>
    <linearGradient
       id="linearGradientSjzq77kpt40"
       y2="0.5"
       x2="1"
       y1="0.5"
       x1="0">
      <stop
         stop-color="#333333"
         offset="0%"
         id="stop14" />
      <stop
         stop-color="#333333"
         offset="100%"
         id="stop16" />
    </linearGradient>
    <linearGradient
       id="linearGradientSjzq77kpt46"
       y2="0.5"
       x2="1"
       y1="0.5"
       x1="0">
      <stop
         stop-opacity="0.99"
         stop-color="#ffffff"
         offset="0%"
         id="stop19" />
      <stop
         stop-opacity="0.99"
         stop-color="#ffffff"
         offset="100%"
         id="stop21" />
    </linearGradient>
    <linearGradient
       id="linearGradientSjzq77kpt4i"
       y2="0.5"
       x2="1"
       y1="0.5"
       x1="0">
      <stop
         stop-color="#333333"
         offset="0%"
         id="stop24" />
      <stop
         stop-color="#333333"
         offset="100%"
         id="stop26" />
    </linearGradient>
  </defs>
  <g
     id="g34">
    <title
       id="title31">background</title>
    <rect
       fill="none"
       id="canvas_background"
       height="402"
       width="582"
       y="-1"
       x="-1" />
  </g>
  <g
     id="g83">
    <title
       id="title36">Layer 1</title>
    <g
       id="svg_10"
       transform="matrix(1,0,0,1,899,380)"
       class="selector-part">
      <rect
         id="svg_11"
         fill="rgba(255,255,255,0)"
         height="0"
         width="0"
         y="0"
         x="0" />
    </g>
    <g
       id="svg_12"
       transform="matrix(6.8748,0,0,6.8748,904.0061,385.0061)"
       class="svg-clip svg-visible">
      <rect
         id="svg_13"
         class="svg-hitbox"
         fill="none"
         height="64"
         width="64"
         y="0"
         x="0" />
      <svg
         id="svg_14"
         class="thumb"
         viewBox="8,8,64,64"
         height="64"
         width="64"
         version="1.1">
        <desc
           id="desc41">Created with Snap</desc>
        <g
           id="svg_15" />
        <g
           id="svg_16" />
        <g
           id="svg_17" />
        <g
           id="svg_18">
          <path
             id="svg_19"
             fill="url('#linearGradientSjzq77kpt4i')"
             d="m67,67l-54,0l0,-54l54,0l0,54zm-52,-2l50,0l0,-50l-50,0l0,50z" />
        </g>
      </svg>
    </g>
    <g
       id="svg_20"
       transform="matrix(0.3282,0,0,0.3282,1040.3141,475.3081)"
       class="svg-clip svg-visible">
      <rect
         id="svg_21"
         class="svg-hitbox"
         fill="none"
         height="443"
         width="510"
         y="0"
         x="0" />
      <g
         id="svg_2">
        <svg
           id="svg_22"
           class="thumb"
           viewBox="-5,25.16,510,443.015"
           height="443.015"
           width="510"
           version="1.1">
          <desc
             id="desc51">Created with Snap</desc>
          <g
             id="svg_23" />
          <g
             id="svg_24" />
          <g
             id="svg_25" />
          <g
             id="svg_26">
            <polygon
               id="svg_27"
               fill="url('#linearGradientSjzq77kpt40')"
               points="125,463.175 0,246.667 125,30.16 374.999,30.16 500,246.667 374.999,463.175 " />
          </g>
        </svg>
      </g>
    </g>
    <g
       id="svg_28"
       transform="matrix(0.4625,0,0,0.4625,1080.7535,505.9848)"
       class="svg-clip svg-visible">
      <rect
         id="svg_29"
         class="svg-hitbox"
         fill="none"
         height="186"
         width="187"
         y="0"
         x="0" />
      <g
         id="svg_3">
        <svg
           id="svg_30"
           class="thumb"
           viewBox="-5.131860901213205,-5,187.0337218024264,186.77"
           height="186.77"
           width="187.033722"
           version="1.1">
          <desc
             id="desc62">Created with Snap</desc>
          <g
             id="svg_31" />
          <g
             id="svg_32" />
          <g
             id="svg_33">
            <circle
               id="svg_34"
               fill="url('#linearGradientSjzq77kpt46')"
               r="88.385"
               cy="88.385"
               cx="88.385" />
          </g>
        </svg>
      </g>
    </g>
    <g
       id="svg_35"
       transform="matrix(0.4838,0,0,0.4838,1125,648)"
       class="svg-text svg-visible">
      <path
         id="svg_36"
         d="m-153.25,101.900002c133.25,-1 173.25,-1 306.5,0"
         fill="none" />
      <path
         id="svg_37"
         fill="url('#linearGradientSjzq77kpt2z')"
         d="m-121.949997,92.625q-8.300003,0 -16.050003,-2.25q-7.75,-2.25 -12.449997,-5.849998l0,0l5.5,-12.199997q4.5,3.299995 10.699997,5.299995q6.199997,2 12.400002,2l0,0q6.900002,0 10.199997,-2.049995q3.300003,-2.050003 3.300003,-5.450005l0,0q0,-2.5 -1.950005,-4.149994q-1.949997,-1.650002 -5,-2.650002q-3.049995,-1 -8.25,-2.200001l0,0q-8,-1.900002 -13.099991,-3.799999q-5.100006,-1.900002 -8.75,-6.100002q-3.650009,-4.200001 -3.650009,-11.200001l0,0q0,-6.099998 3.300003,-11.049999q3.300003,-4.950001 9.949997,-7.850002q6.650009,-2.899994 16.25,-2.899994l0,0q6.700005,0 13.100006,1.599998q6.399994,1.599998 11.199997,4.599998l0,0l-5,12.299999q-9.699997,-5.5 -19.400002,-5.5l0,0q-6.799995,0 -10.049995,2.200001q-3.25,2.200001 -3.25,5.799999l0,0q0,3.600002 3.75,5.350002q3.75,1.75 11.449997,3.449997l0,0q8,1.900002 13.099998,3.800003q5.099998,1.899998 8.75,6q3.650002,4.099998 3.650002,11.099998l0,0q0,6 -3.349998,10.949997q-3.349998,4.950005 -10.050003,7.850006q-6.699997,2.899994 -16.299995,2.899994l0,0zm61.399998,-55.799995q12.5,0 19.200001,5.949997q6.699997,5.950001 6.699997,17.950001l0,0l0,30.700001l-14.599998,0l0,-6.699997q-4.400002,7.5 -16.400002,7.5l0,0q-6.199997,0 -10.75,-2.100006q-4.549995,-2.099998 -6.949997,-5.799995q-2.400002,-3.700005 -2.400002,-8.400002l0,0q0,-7.5 5.650002,-11.800003q5.650002,-4.299995 17.449997,-4.299995l0,0l12.400002,0q0,-5.100002 -3.099998,-7.850002q-3.100002,-2.75 -9.300003,-2.75l0,0q-4.299995,0 -8.449997,1.350002q-4.150002,1.349998 -7.050003,3.649998l0,0l-5.599998,-10.899998q4.400002,-3.100002 10.550003,-4.800003q6.149994,-1.699997 12.649998,-1.699997l0,0zm-1.200001,44.900002q4,0 7.099998,-1.850006q3.100002,-1.849998 4.400002,-5.449997l0,0l0,-5.5l-10.700001,0q-9.600002,0 -9.600002,6.300003l0,0q0,3 2.350006,4.75q2.349998,1.75 6.449997,1.75l0,0zm110.099998,-44.900002q10.100002,0 16.050003,5.949997q5.949997,5.950001 5.949997,17.850002l0,0l0,30.799999l-15.599998,0l0,-28.400002q0,-6.399998 -2.650002,-9.549999q-2.649998,-3.149998 -7.549999,-3.149998l0,0q-5.5,0 -8.700001,3.549999q-3.199997,3.549999 -3.199997,10.549999l0,0l0,27l-15.600002,0l0,-28.400002q0,-12.699997 -10.199999,-12.699997l0,0q-5.4,0 -8.6,3.549999q-3.2,3.549999 -3.2,10.549999l0,0l0,27l-15.599999,0l0,-53.799999l14.899999,0l0,6.200001q3,-3.400002 7.35,-5.200001q4.35,-1.799999 9.55,-1.799999l0,0q5.700001,0 10.299999,2.25q4.6,2.25 7.400002,6.549999l0,0q3.299999,-4.200001 8.349998,-6.5q5.049999,-2.299999 11.049999,-2.299999l0,0zm34.700005,13l-1,-28.400002l13.299995,0l-1.099998,28.400002l-11.199997,0zm42.399994,42.400002q-6.699997,0 -13.099998,-1.650002q-6.400002,-1.650002 -10.199997,-4.150002l0,0l5.199997,-11.199997q3.599998,2.299995 8.700005,3.75q5.099998,1.449997 10,1.449997l0,0q9.899994,0 9.899994,-4.900002l0,0q0,-2.299995 -2.699997,-3.299995q-2.699997,-1 -8.300003,-1.700005l0,0q-6.599998,-1 -10.899994,-2.299995q-4.300003,-1.300003 -7.450005,-4.600002q-3.150002,-3.299999 -3.150002,-9.400002l0,0q0,-5.099998 2.950005,-9.049999q2.949997,-3.950001 8.599998,-6.150002q5.650002,-2.199997 13.350006,-2.199997l0,0q5.699997,0 11.349991,1.25q5.650009,1.25 9.350006,3.449997l0,0l-5.199997,11.100002q-7.100006,-4 -15.5,-4l0,0q-5.000008,0 -7.500008,1.399998q-2.5,1.400002 -2.5,3.600002l0,0q0,2.5 2.700005,3.5q2.699997,1 8.599991,1.899998l0,0q6.600006,1.100002 10.800003,2.350002q4.199997,1.25 7.300003,4.549999q3.100006,3.300003 3.100006,9.199997l0,0q0,5 -3,8.900002q-3,3.900002 -8.75,6.050003q-5.75,2.150002 -13.650009,2.150002l0,0z" />
      <rect
         id="svg_38"
         height="0"
         width="0"
         y="0"
         x="0" />
    </g>
    <g
       id="svg_39"
       transform="matrix(0.4695,0,0,0.4695,1125,697)"
       class="svg-text svg-visible">
      <path
         id="svg_40"
         d="m-158.5,101.900002c138.5,-1 178.5,-1 317,0"
         fill="none" />
      <path
         id="svg_41"
         fill="url('#linearGradientSjzq77kpt32')"
         d="m-135.699997,91.425003l0,-56.799999l-22.400009,0l0,-13.200001l61.000008,0l0,13.200001l-22.400002,0l0,56.799999l-16.199997,0zm59.899994,-46.700001q2.800003,-3.899998 7.550003,-5.899998q4.75,-2 10.950001,-2l0,0l0,14.399998q-2.600002,-0.200001 -3.5,-0.200001l0,0q-6.700001,0 -10.500004,3.75q-3.799995,3.75 -3.799995,11.25l0,0l0,25.400002l-15.599998,0l0,-53.799999l14.899994,0l0,7.099998zm49.200003,-7.899998q12.5,0 19.2,5.949997q6.7,5.950001 6.7,17.950001l0,0l0,30.700001l-14.6,0l0,-6.699997q-4.400001,7.5 -16.400001,7.5l0,0q-6.200001,0 -10.75,-2.100006q-4.549999,-2.099998 -6.950001,-5.799995q-2.399998,-3.700005 -2.399998,-8.400002l0,0q0,-7.5 5.649998,-11.800003q5.650002,-4.299995 17.450001,-4.299995l0,0l12.400002,0q0,-5.100002 -3.1,-7.850002q-3.1,-2.75 -9.300001,-2.75l0,0q-4.299999,0 -8.450001,1.350002q-4.149998,1.349998 -7.049999,3.649998l0,0l-5.599998,-10.899998q4.399998,-3.100002 10.549999,-4.800003q6.150002,-1.699997 12.65,-1.699997l0,0zm-1.199999,44.900002q4,0 7.099998,-1.850006q3.1,-1.849998 4.400002,-5.449997l0,0l0,-5.5l-10.700001,0q-9.599998,0 -9.599998,6.300003l0,0q0,3 2.349998,4.75q2.35,1.75 6.450001,1.75l0,0zm41.199999,9.699997l0,-53.799999l15.6,0l0,53.799999l-15.6,0zm7.800001,-61.299999q-4.300001,0 -7.000001,-2.5q-2.7,-2.500004 -2.7,-6.200001l0,0q0,-3.699997 2.7,-6.199997q2.7,-2.5 7.000001,-2.5l0,0q4.299999,0 7,2.399994q2.699999,2.400002 2.699999,6l0,0q0,3.900002 -2.699999,6.450005q-2.700001,2.549999 -7,2.549999l0,0zm54.999996,6.700001q10,0 16.150002,6q6.150002,6 6.150002,17.799999l0,0l0,30.799999l-15.599998,0l0,-28.400002q0,-6.399998 -2.800003,-9.549999q-2.799995,-3.149998 -8.099998,-3.149998l0,0q-5.900002,0 -9.400002,3.649998q-3.5,3.650002 -3.5,10.850002l0,0l0,26.599998l-15.599998,0l0,-53.799999l14.900002,0l0,6.299999q3.099998,-3.400002 7.699997,-5.25q4.599998,-1.849998 10.099998,-1.849998l0,0zm54.5,55.400002q-6.699997,0 -13.099998,-1.650002q-6.400002,-1.650002 -10.199997,-4.150002l0,0l5.199997,-11.199997q3.599998,2.299995 8.700005,3.75q5.099998,1.449997 10,1.449997l0,0q9.899994,0 9.899994,-4.900002l0,0q0,-2.299995 -2.699997,-3.299995q-2.699997,-1 -8.300003,-1.700005l0,0q-6.599998,-1 -10.899994,-2.299995q-4.300003,-1.300003 -7.450005,-4.600002q-3.150002,-3.299999 -3.150002,-9.400002l0,0q0,-5.099998 2.950005,-9.049999q2.949997,-3.950001 8.599998,-6.150002q5.650002,-2.199997 13.350006,-2.199997l0,0q5.699997,0 11.349991,1.25q5.650009,1.25 9.350006,3.449997l0,0l-5.199997,11.100002q-7.100006,-4 -15.5,-4l0,0q-5,0 -7.500008,1.399998q-2.5,1.400002 -2.5,3.600002l0,0q0,2.5 2.700005,3.5q2.699997,1 8.599991,1.899998l0,0q6.600006,1.100002 10.800003,2.350002q4.199997,1.25 7.300003,4.549999q3.100006,3.300003 3.100006,9.199997l0,0q0,5 -3,8.900002q-3,3.900002 -8.75,6.050003q-5.75,2.150002 -13.650009,2.150002l0,0z" />
      <rect
         id="svg_42"
         height="0"
         width="0"
         y="0"
         x="0" />
    </g>
    <g
       id="svg_43">
      <rect
         id="svg_44"
         stroke-width=" 1px"
         stroke="#ff8800"
         fill="rgba(255,136,0,0.1)"
         height="0"
         width="0"
         y="0"
         x="0" />
    </g>
    <g
       id="svg_45"
       class="selector-part">
      <rect
         id="svg_46"
         stroke-width=" 1px"
         stroke="#3399ff"
         fill="rgba(168,202,236,0.5)"
         height="0"
         width="0"
         y="380"
         x="1376" />
    </g>
  </g>
</svg>
